<svg xmlns="http://www.w3.org/2000/svg" width="1920" height="1080" viewBox="0 0 1920 1080" role="img"><title>DecisionInvitation. Catalyst of analysis.</title><rect width="1920" height="1080" fill="#211B2B"/><rect x="1113.6" width="806.4" height="1080" fill="#3346C8"/><g fill="#FFFFFF"><path d="M191.39712000000003 434.83392Q175.65312 434.83392 164.55360000000002 429.32352000000003Q153.45408 423.81312 146.68416000000002 414.99648Q139.91424 406.17984 136.76544 395.86752Q133.61664000000002 385.5552 133.61664000000002 375.95136V372.48768Q133.61664000000002 362.09664 136.84416000000002 351.7056Q140.07168000000001 341.31456000000003 146.84160000000003 332.81280000000004Q153.61152 324.31104 164.47488 319.11552Q175.33824 313.92 190.45248 313.92Q213.43872 313.92 226.7424 325.64928Q240.04608000000002 337.37856 242.25024000000002 356.90112H226.50624Q224.45952 342.2592 214.46208000000001 335.1744Q204.46464 328.0896 190.45248 328.0896Q176.91264 328.0896 167.7024 334.30848000000003Q158.49216 340.52736 153.9264 350.99712Q149.36064000000002 361.46688 149.36064000000002 374.37696Q149.36064000000002 386.65728 154.00512000000003 397.20576Q158.64960000000002 407.75424 168.01728000000003 414.20928Q177.38496 420.66432 191.39712000000003 420.66432Q206.19648 420.66432 216.27264000000002 413.26464Q226.3488 405.86496 228.55296 391.8528H244.29696Q242.72256000000002 403.6608 236.34624000000002 413.42208Q229.96992 423.18336 218.71296 429.00864Q207.45600000000002 434.83392 191.39712000000003 434.83392Z"/><path d="M283.81440000000003 434.20416Q269.48736 434.20416 261.3792 427.04064Q253.27104000000003 419.87712 253.27104000000003 406.8096Q253.27104000000003 393.42719999999997 262.24512000000004 386.57856Q271.2192 379.72992 287.59296 379.72992H308.84736000000004V377.6832Q308.84736000000004 360.20736 291.21408 360.20736Q283.97184000000004 360.20736 276.09984000000003 360.52224Q268.22784 360.83712 263.03232 361.152V347.92704000000003Q268.0704 347.45472 274.28928 347.21856Q280.50816000000003 346.9824 286.17600000000004 346.9824Q305.54112000000003 346.9824 314.43648 354.06719999999996Q323.33184 361.152 323.33184 378.78528V432.0H311.3664V415.31136Q305.69856000000004 434.20416 283.81440000000003 434.20416ZM286.96320000000003 422.23872Q292.31616 422.23872 297.19680000000005 420.27072Q302.07744 418.30272 305.30496000000005 413.65824Q308.53248 409.01376 308.84736000000004 400.82688V391.0656H286.96320000000003Q277.83168 391.0656 272.95104000000003 395.47392Q268.0704 399.88224 268.0704 406.8096Q268.0704 413.73696 272.95104000000003 417.98784Q277.83168 422.23872 286.96320000000003 422.23872Z"/><path d="M379.8528 432.94464Q370.4064 432.94464 363.55776000000003 430.26815999999997Q356.70912000000004 427.59168 353.00928000000005 421.05791999999997Q349.30944000000005 414.52416 349.30944000000005 403.34592V359.26272H334.82496000000003V347.92704000000003H349.30944000000005V322.42176H363.79392V347.92704000000003H392.76288000000005V359.26272H363.79392V405.2352Q363.79392 412.00512 367.49376000000007 415.70496Q371.19360000000006 419.4048 377.96352 419.4048H392.76288000000005V432.94464Z"/><path d="M433.53984 434.20416Q419.2128 434.20416 411.10464 427.04064Q402.99648 419.87712 402.99648 406.8096Q402.99648 393.42719999999997 411.97056000000003 386.57856Q420.94464000000005 379.72992 437.31840000000005 379.72992H458.57280000000003V377.6832Q458.57280000000003 360.20736 440.93952 360.20736Q433.69728000000003 360.20736 425.82528 360.52224Q417.95328000000006 360.83712 412.75776 361.152V347.92704000000003Q417.79584000000006 347.45472 424.01472 347.21856Q430.2336 346.9824 435.90144000000004 346.9824Q455.26656 346.9824 464.16192 354.06719999999996Q473.05728000000005 361.152 473.05728000000005 378.78528V432.0H461.09184000000005V415.31136Q455.42400000000004 434.20416 433.53984 434.20416ZM436.68864 422.23872Q442.0416 422.23872 446.92224 420.27072Q451.80288 418.30272 455.0304 413.65824Q458.25792 409.01376 458.57280000000003 400.82688V391.0656H436.68864Q427.55712000000005 391.0656 422.6764800000001 395.47392Q417.79584000000006 399.88224 417.79584000000006 406.8096Q417.79584000000006 413.73696 422.6764800000001 417.98784Q427.55712000000005 422.23872 436.68864 422.23872Z"/><path d="M497.77536000000003 432.0V329.03424H486.12480000000005V317.0688H512.8896V432.0Z"/><path d="M556.34304 430.11072 526.272 347.92704000000003H541.7011200000001L566.10432 417.51552H569.41056L590.0352 347.92704000000003H604.83456L576.81024 440.97408Q573.03168 453.41184 564.68736 459.07968Q556.34304 464.74752 543.43296 464.74752H532.25472V451.20768H544.3776Q552.2496 451.20768 556.7366400000001 448.05888Q561.2236800000001 444.91008 563.58528 437.03808L565.6320000000001 430.11072Z"/><path d="M647.65824 434.51904Q631.12704 434.51904 622.0742399999999 427.43424000000005Q613.02144 420.34944 612.70656 408.06912H626.87616Q627.19104 412.94976 631.8355200000001 417.27936Q636.48 421.60896 647.65824 421.60896Q657.7344 421.60896 663.08736 417.59424Q668.44032 413.57952 668.44032 407.75424Q668.44032 402.55872 664.50432 399.64608Q660.56832 396.73344 651.75168 395.7888L642.6201599999999 394.84416Q630.65472 393.58464 623.0976 387.68064Q615.54048 381.77664 615.54048 371.07072Q615.54048 358.94784 624.5145600000001 352.17792Q633.48864 345.408 647.65824 345.408Q661.82784 345.408 670.6444799999999 351.7056Q679.4611199999999 358.0032 679.776 370.44096H665.6064Q665.4489599999999 365.40288 660.96192 361.86048Q656.47488 358.31808 647.65824 358.31808Q638.8416 358.31808 634.27584 361.9392Q629.71008 365.56032 629.71008 371.07072Q629.71008 375.79392 632.9376 378.62784Q636.16512 381.46176 643.5648 382.24896L652.69632 383.1936Q666.23616 384.61056 674.42304 390.672Q682.60992 396.73344 682.60992 407.75424Q682.60992 415.62624 678.12288 421.68768Q673.63584 427.74912 665.7638400000001 431.13408000000004Q657.89184 434.51904 647.65824 434.51904Z"/><path d="M733.3055999999999 432.94464Q723.8592 432.94464 717.0105599999999 430.26815999999997Q710.1619199999999 427.59168 706.4620799999999 421.05791999999997Q702.7622399999999 414.52416 702.7622399999999 403.34592V359.26272H688.27776V347.92704000000003H702.7622399999999V322.42176H717.24672V347.92704000000003H746.2156799999999V359.26272H717.24672V405.2352Q717.24672 412.00512 720.94656 415.70496Q724.6464 419.4048 731.4163199999999 419.4048H746.2156799999999V432.94464Z"/></g><g fill="#FFFFFF"><path d="M178.01472 592.2739200000001Q166.99392 592.2739200000001 158.64960000000002 588.4953600000001Q150.30528 584.7168 144.55872 578.49792Q138.81216 572.27904 135.89952 564.56448Q132.98688 556.8499200000001 132.98688 548.8204800000001V545.98656Q132.98688 537.95712 135.97824000000003 530.16384Q138.9696 522.3705600000001 144.79488 516.15168Q150.62016 509.93280000000004 158.96448 506.23296000000005Q167.30880000000002 502.53312000000005 178.01472 502.53312000000005Q188.72064 502.53312000000005 197.06496 506.23296000000005Q205.40928000000002 509.93280000000004 211.23456000000002 516.15168Q217.05984 522.3705600000001 220.0512 530.16384Q223.04256 537.95712 223.04256 545.98656V548.8204800000001Q223.04256 556.8499200000001 220.12992000000003 564.56448Q217.21728000000002 572.27904 211.47072000000003 578.49792Q205.72416 584.7168 197.37984 588.4953600000001Q189.03552000000002 592.2739200000001 178.01472 592.2739200000001ZM178.01472 578.7340800000001Q187.46112 578.7340800000001 194.15232 574.5619200000001Q200.84352 570.38976 204.38592 563.30496Q207.92832 556.2201600000001 207.92832 547.4035200000001Q207.92832 538.4294400000001 204.30720000000002 531.34464Q200.68608 524.25984 193.99488000000002 520.1664000000001Q187.30368 516.0729600000001 178.01472 516.0729600000001Q168.88320000000002 516.0729600000001 162.11328000000003 520.1664000000001Q155.34336000000002 524.25984 151.72224 531.34464Q148.10112 538.4294400000001 148.10112 547.4035200000001Q148.10112 556.2201600000001 151.64352000000002 563.30496Q155.18592 570.38976 161.87712 574.5619200000001Q168.56832 578.7340800000001 178.01472 578.7340800000001Z"/><path d="M243.98208 589.44V517.64736H232.33152V506.31168H243.98208V501.11616000000004Q243.98208 487.10400000000004 251.38175999999999 480.49152000000004Q258.78144 473.87904000000003 273.10848 473.87904000000003H283.49952V486.47424000000007H270.58944Q264.76416 486.47424000000007 261.61536 489.70176000000004Q258.46656 492.92928000000006 258.46656 498.5971200000001V506.31168H285.07392V517.64736H258.46656V589.44Z"/><path d="M352.77312 591.64416Q338.44608 591.64416 330.33792 584.48064Q322.22976 577.31712 322.22976 564.2496000000001Q322.22976 550.8672 331.20384 544.01856Q340.17792000000003 537.16992 356.55168000000003 537.16992H377.80608V535.1232Q377.80608 517.64736 360.1728 517.64736Q352.93056 517.64736 345.05856000000006 517.9622400000001Q337.18656000000004 518.2771200000001 331.99104 518.5920000000001V505.3670400000001Q337.02912000000003 504.89472000000006 343.24800000000005 504.6585600000001Q349.46688 504.42240000000004 355.13472 504.42240000000004Q374.49984 504.42240000000004 383.39520000000005 511.50720000000007Q392.29056 518.5920000000001 392.29056 536.2252800000001V589.44H380.32512V572.7513600000001Q374.65728 591.64416 352.77312 591.64416ZM355.92192 579.6787200000001Q361.27488 579.6787200000001 366.15552 577.71072Q371.03616 575.7427200000001 374.26368 571.09824Q377.4912 566.4537600000001 377.80608 558.26688V548.5056000000001H355.92192Q346.79040000000003 548.5056000000001 341.90976 552.9139200000001Q337.02912000000003 557.3222400000001 337.02912000000003 564.2496000000001Q337.02912000000003 571.17696 341.90976 575.4278400000001Q346.79040000000003 579.6787200000001 355.92192 579.6787200000001Z"/><path d="M416.064 589.44V505.3670400000001H428.02944V524.8896000000001Q430.86336 514.1836800000001 438.18431999999996 508.5158400000001Q445.50527999999997 502.84800000000007 457.31328 502.84800000000007H457.94304Q473.84448 502.84800000000007 481.48032 512.7667200000001Q489.11616 522.6854400000001 489.11616 541.4208000000001V589.44H474.00192V538.272Q474.00192 528.5107200000001 468.49152000000004 522.60672Q462.98112000000003 516.70272 453.37728 516.70272Q443.45856 516.70272 437.3184 522.84288Q431.17824 528.9830400000001 431.17824 539.2166400000001V589.44Z"/><path d="M536.19072 591.64416Q521.86368 591.64416 513.75552 584.48064Q505.64736 577.31712 505.64736 564.2496000000001Q505.64736 550.8672 514.62144 544.01856Q523.59552 537.16992 539.96928 537.16992H561.2236800000001V535.1232Q561.2236800000001 517.64736 543.5904 517.64736Q536.34816 517.64736 528.4761599999999 517.9622400000001Q520.60416 518.2771200000001 515.40864 518.5920000000001V505.3670400000001Q520.44672 504.89472000000006 526.6656 504.6585600000001Q532.88448 504.42240000000004 538.55232 504.42240000000004Q557.91744 504.42240000000004 566.8128 511.50720000000007Q575.70816 518.5920000000001 575.70816 536.2252800000001V589.44H563.74272V572.7513600000001Q558.07488 591.64416 536.19072 591.64416ZM539.33952 579.6787200000001Q544.69248 579.6787200000001 549.57312 577.71072Q554.45376 575.7427200000001 557.68128 571.09824Q560.9088 566.4537600000001 561.2236800000001 558.26688V548.5056000000001H539.33952Q530.208 548.5056000000001 525.32736 552.9139200000001Q520.44672 557.3222400000001 520.44672 564.2496000000001Q520.44672 571.17696 525.32736 575.4278400000001Q530.208 579.6787200000001 539.33952 579.6787200000001Z"/><path d="M600.42624 589.44V486.47424000000007H588.77568V474.50880000000006H615.54048V589.44Z"/><path d="M658.99392 587.5507200000001 628.9228800000001 505.3670400000001H644.3520000000001L668.7552000000001 574.9555200000001H672.0614400000001L692.6860800000001 505.3670400000001H707.48544L679.46112 598.41408Q675.6825600000001 610.85184 667.33824 616.5196800000001Q658.99392 622.1875200000001 646.08384 622.1875200000001H634.9056V608.64768H647.0284800000001Q654.90048 608.64768 659.38752 605.4988800000001Q663.8745600000001 602.35008 666.23616 594.4780800000001L668.2828800000001 587.5507200000001Z"/><path d="M750.30912 591.9590400000001Q733.77792 591.9590400000001 724.7251200000001 584.8742400000001Q715.67232 577.78944 715.35744 565.50912H729.52704Q729.8419200000001 570.38976 734.4864 574.71936Q739.13088 579.0489600000001 750.30912 579.0489600000001Q760.38528 579.0489600000001 765.73824 575.0342400000001Q771.0912000000001 571.01952 771.0912000000001 565.19424Q771.0912000000001 559.99872 767.1552 557.08608Q763.2192 554.17344 754.40256 553.2288000000001L745.27104 552.28416Q733.3056 551.0246400000001 725.74848 545.1206400000001Q718.19136 539.2166400000001 718.19136 528.5107200000001Q718.19136 516.3878400000001 727.16544 509.6179200000001Q736.1395200000001 502.84800000000007 750.30912 502.84800000000007Q764.4787200000001 502.84800000000007 773.2953600000001 509.14560000000006Q782.1120000000001 515.4432 782.42688 527.8809600000001H768.25728Q768.09984 522.84288 763.6128 519.3004800000001Q759.12576 515.7580800000001 750.30912 515.7580800000001Q741.49248 515.7580800000001 736.9267199999999 519.3792000000001Q732.36096 523.0003200000001 732.36096 528.5107200000001Q732.36096 533.23392 735.58848 536.06784Q738.816 538.9017600000001 746.21568 539.6889600000001L755.3472 540.6336000000001Q768.8870400000001 542.05056 777.07392 548.1120000000001Q785.2608 554.17344 785.2608 565.19424Q785.2608 573.0662400000001 780.77376 579.12768Q776.2867200000001 585.18912 768.41472 588.5740800000001Q760.54272 591.9590400000001 750.30912 591.9590400000001Z"/><path d="M811.5532800000001 491.82720000000006Q806.5152 491.82720000000006 804.0748800000001 489.1507200000001Q801.6345600000001 486.47424000000007 801.6345600000001 482.3808Q801.6345600000001 478.28736000000004 804.0748800000001 475.61088000000007Q806.5152 472.93440000000004 811.5532800000001 472.93440000000004Q816.5913600000001 472.93440000000004 819.03168 475.61088000000007Q821.4720000000001 478.28736000000004 821.4720000000001 482.3808Q821.4720000000001 486.47424000000007 819.03168 489.1507200000001Q816.5913600000001 491.82720000000006 811.5532800000001 491.82720000000006ZM807.3024 589.44V517.33248H794.39232V505.3670400000001H822.4166400000001V589.44Z"/><path d="M875.3164800000001 591.9590400000001Q858.7852800000001 591.9590400000001 849.7324800000001 584.8742400000001Q840.6796800000001 577.78944 840.3648000000001 565.50912H854.5344000000001Q854.8492800000001 570.38976 859.4937600000001 574.71936Q864.1382400000001 579.0489600000001 875.3164800000001 579.0489600000001Q885.39264 579.0489600000001 890.7456000000001 575.0342400000001Q896.0985600000001 571.01952 896.0985600000001 565.19424Q896.0985600000001 559.99872 892.1625600000001 557.08608Q888.2265600000001 554.17344 879.40992 553.2288000000001L870.2784 552.28416Q858.3129600000001 551.0246400000001 850.75584 545.1206400000001Q843.1987200000001 539.2166400000001 843.1987200000001 528.5107200000001Q843.1987200000001 516.3878400000001 852.1728 509.6179200000001Q861.1468800000001 502.84800000000007 875.3164800000001 502.84800000000007Q889.4860800000001 502.84800000000007 898.3027200000001 509.14560000000006Q907.1193600000001 515.4432 907.43424 527.8809600000001H893.2646400000001Q893.1072 522.84288 888.62016 519.3004800000001Q884.1331200000001 515.7580800000001 875.3164800000001 515.7580800000001Q866.4998400000001 515.7580800000001 861.93408 519.3792000000001Q857.36832 523.0003200000001 857.36832 528.5107200000001Q857.36832 533.23392 860.5958400000001 536.06784Q863.8233600000001 538.9017600000001 871.2230400000001 539.6889600000001L880.3545600000001 540.6336000000001Q893.8944000000001 542.05056 902.0812800000001 548.1120000000001Q910.2681600000001 554.17344 910.2681600000001 565.19424Q910.2681600000001 573.0662400000001 905.7811200000001 579.12768Q901.2940800000001 585.18912 893.42208 588.5740800000001Q885.5500800000001 591.9590400000001 875.3164800000001 591.9590400000001Z"/><path d="M925.2249600000001 589.44V570.2323200000001H943.4880000000002V589.44Z"/></g><g fill="#FFFFFF"><path d="M128.42880000000002 955.3612800000001V925.5648H139.07328Q143.06496 925.5648 146.02848 926.75424Q148.99200000000002 927.9436800000001 150.98784 929.9798400000001Q152.98368000000002 932.0160000000001 153.97152 934.59648Q154.95936 937.17696 154.95936 939.9590400000001V940.84608Q154.95936 943.5072 153.97152 946.0876800000001Q152.98368000000002 948.6681600000001 150.98784 950.7648Q148.99200000000002 952.86144 146.02848 954.1113600000001Q143.06496 955.3612800000001 139.07328 955.3612800000001ZM139.43616 930.8870400000001H134.15424000000002V950.03904H139.43616Q142.46016 950.03904 144.63744000000003 948.80928Q146.81472000000002 947.57952 147.98400000000004 945.40224Q149.15328000000002 943.22496 149.15328000000002 940.40256Q149.15328000000002 936.00768 146.57280000000003 933.4473600000001Q143.99232 930.8870400000001 139.43616 930.8870400000001Z"/><path d="M169.43424000000002 955.96608Q166.61184000000003 955.96608 164.49504000000002 954.9984000000001Q162.37824000000003 954.0307200000001 160.98720000000003 952.3977600000001Q159.59616000000003 950.7648 158.89056000000002 948.7488000000001Q158.18496000000002 946.7328 158.18496000000002 944.63616V943.87008Q158.18496000000002 941.6928 158.89056000000002 939.6768Q159.59616000000003 937.6608 160.98720000000003 936.048Q162.37824000000003 934.4352 164.43456000000003 933.48768Q166.49088000000003 932.54016 169.19232000000002 932.54016Q172.74048000000002 932.54016 175.11936000000003 934.09248Q177.49824000000004 935.6448 178.72800000000004 938.1648Q179.95776000000004 940.6848 179.95776000000004 943.58784V945.60384H163.50720000000004Q163.78944000000004 948.1843200000001 165.22080000000005 949.7568000000001Q166.65216000000004 951.32928 169.43424000000002 951.32928Q171.45024000000004 951.32928 172.76064000000002 950.5027200000001Q174.07104000000004 949.6761600000001 174.43392000000003 948.4665600000001H179.59488000000002Q178.86912000000004 951.8534400000001 176.16768000000002 953.90976Q173.46624000000003 955.96608 169.43424000000002 955.96608ZM169.19232000000002 937.17696Q166.81344 937.17696 165.40224 938.50752Q163.99104000000003 939.83808 163.58784000000003 942.17664H174.59520000000003Q174.27264000000002 939.83808 172.92192000000003 938.50752Q171.57120000000003 937.17696 169.19232000000002 937.17696Z"/><path d="M194.35200000000003 955.96608Q191.48928000000004 955.96608 189.39264000000003 954.9984000000001Q187.29600000000002 954.0307200000001 185.92512000000002 952.4179200000001Q184.55424000000002 950.80512 183.86880000000002 948.78912Q183.18336000000002 946.7731200000001 183.18336000000002 944.6764800000001V943.9104000000001Q183.18336000000002 941.7331200000001 183.88896000000003 939.69696Q184.59456000000003 937.6608 185.98560000000003 936.048Q187.37664000000004 934.4352 189.45312000000004 933.48768Q191.52960000000004 932.54016 194.31168000000002 932.54016Q197.17440000000002 932.54016 199.41216000000003 933.64896Q201.64992000000004 934.7577600000001 203.00064000000003 936.7334400000001Q204.35136000000003 938.7091200000001 204.55296000000004 941.32992H199.10976000000002Q198.86784000000003 939.63648 197.65824000000003 938.50752Q196.44864000000004 937.37856 194.31168000000002 937.37856Q191.48928000000004 937.37856 190.13856000000004 939.31392Q188.78784000000005 941.24928 188.78784000000005 944.27328Q188.78784000000005 947.2166400000001 190.09824000000003 949.1721600000001Q191.40864000000002 951.12768 194.35200000000003 951.12768Q196.52928000000003 951.12768 197.79936000000004 949.99872Q199.06944000000004 948.86976 199.31136000000004 947.0553600000001H204.75456000000003Q204.59328000000002 949.71648 203.20224000000002 951.7324800000001Q201.81120000000004 953.7484800000001 199.51296000000002 954.8572800000001Q197.21472000000003 955.96608 194.35200000000003 955.96608Z"/><path d="M212.33472000000003 930.6854400000001Q210.68160000000003 930.6854400000001 209.89536000000004 929.81856Q209.10912000000005 928.95168 209.10912000000005 927.62112Q209.10912000000005 926.29056 209.89536000000004 925.44384Q210.68160000000003 924.59712 212.33472000000003 924.59712Q213.94752000000003 924.59712 214.73376000000002 925.44384Q215.52000000000004 926.29056 215.52000000000004 927.62112Q215.52000000000004 928.95168 214.73376000000002 929.81856Q213.94752000000003 930.6854400000001 212.33472000000003 930.6854400000001ZM210.27840000000003 955.2V937.4995200000001H207.21408000000002V933.30624H215.88288000000003V955.2Z"/><path d="M230.27712000000005 955.88544Q225.76128000000006 955.88544 223.20096000000007 953.9702400000001Q220.64064000000005 952.0550400000001 220.51968000000005 948.6681600000001H225.55968000000004Q225.64032000000006 949.83744 226.78944000000007 950.74464Q227.93856000000005 951.65184 230.35776000000004 951.65184Q232.33344000000005 951.65184 233.54304000000005 950.92608Q234.75264000000004 950.20032 234.75264000000004 948.9504000000001Q234.75264000000004 947.86176 233.84544000000005 947.2368Q232.93824000000006 946.61184 230.76096000000004 946.3699200000001L228.82560000000007 946.16832Q225.11616000000006 945.76512 223.16064000000006 944.07168Q221.20512000000005 942.37824 221.20512000000005 939.55584Q221.20512000000005 937.33824 222.33408000000006 935.78592Q223.46304000000006 934.2336 225.45888000000008 933.4473600000001Q227.45472000000007 932.6611200000001 230.03520000000006 932.6611200000001Q234.06720000000004 932.6611200000001 236.56704000000005 934.4553600000002Q239.06688000000005 936.2496000000001 239.18784000000005 939.63648H234.14784000000006Q234.02688000000006 938.50752 232.99872000000005 937.70112Q231.97056000000006 936.89472 229.99488000000005 936.89472Q228.22080000000005 936.89472 227.25312000000005 937.58016Q226.28544000000005 938.2656000000001 226.28544000000005 939.35424Q226.28544000000005 940.40256 227.05152000000004 940.96704Q227.81760000000006 941.53152 229.63200000000006 941.7331200000001L231.56736000000006 941.9347200000001Q235.39776000000006 942.33792 237.61536000000007 944.07168Q239.83296000000004 945.8054400000001 239.83296000000004 948.7488000000001Q239.83296000000004 950.9260800000001 238.64352000000005 952.51872Q237.45408000000006 954.11136 235.31712000000005 954.9984Q233.18016000000006 955.88544 230.27712000000005 955.88544Z"/><path d="M247.57440000000005 930.6854400000001Q245.92128000000005 930.6854400000001 245.13504000000006 929.81856Q244.34880000000007 928.95168 244.34880000000007 927.62112Q244.34880000000007 926.29056 245.13504000000006 925.44384Q245.92128000000005 924.59712 247.57440000000005 924.59712Q249.18720000000005 924.59712 249.97344000000004 925.44384Q250.75968000000006 926.29056 250.75968000000006 927.62112Q250.75968000000006 928.95168 249.97344000000004 929.81856Q249.18720000000005 930.6854400000001 247.57440000000005 930.6854400000001ZM245.51808000000005 955.2V937.4995200000001H242.45376000000005V933.30624H251.12256000000005V955.2Z"/><path d="M268.09728000000007 955.96608Q264.22656000000006 955.96608 261.5654400000001 954.3734400000001Q258.9043200000001 952.7808 257.5132800000001 950.20032Q256.1222400000001 947.6198400000001 256.1222400000001 944.7168V943.87008Q256.1222400000001 940.84608 257.5536000000001 938.2656000000001Q258.98496000000006 935.6851200000001 261.6662400000001 934.11264Q264.3475200000001 932.54016 268.09728000000007 932.54016Q271.8067200000001 932.54016 274.48800000000006 934.11264Q277.1692800000001 935.6851200000001 278.6006400000001 938.2656000000001Q280.0320000000001 940.84608 280.0320000000001 943.87008V944.7168Q280.0320000000001 947.6198400000001 278.64096000000006 950.20032Q277.2499200000001 952.7808 274.5888000000001 954.3734400000001Q271.92768000000007 955.96608 268.09728000000007 955.96608ZM268.09728000000007 951.168Q271.1616000000001 951.168 272.79456000000005 949.21248Q274.4275200000001 947.25696 274.4275200000001 944.27328Q274.4275200000001 941.2896000000001 272.73408000000006 939.31392Q271.04064000000005 937.33824 268.09728000000007 937.33824Q265.1136000000001 937.33824 263.42016000000007 939.31392Q261.72672000000006 941.2896000000001 261.72672000000006 944.27328Q261.72672000000006 947.25696 263.35968 949.21248Q264.99264000000005 951.168 268.09728000000007 951.168Z"/><path d="M284.95104000000003 955.2V933.30624H289.38624000000004V938.7091200000001Q290.79744000000005 932.6208 296.88576000000006 932.6208H297.12768000000005Q301.03872000000007 932.6208 303.0547200000001 935.16096Q305.07072000000005 937.7011200000001 305.07072000000005 942.66048V955.2H299.4662400000001V942.17664Q299.4662400000001 940.1606400000001 298.29696000000007 938.9107200000001Q297.12768000000005 937.6608 295.15200000000004 937.6608Q293.0956800000001 937.6608 291.82560000000007 938.95104Q290.55552000000006 940.2412800000001 290.55552000000006 942.33792V955.2Z"/><path d="M311.60256000000004 955.2V925.7664000000001H317.3280000000001V955.2Z"/><path d="M324.22272000000004 955.2V933.30624H328.65792000000005V938.7091200000001Q330.06912000000005 932.6208 336.15744000000007 932.6208H336.39936000000006Q340.3104000000001 932.6208 342.32640000000004 935.16096Q344.34240000000005 937.7011200000001 344.34240000000005 942.66048V955.2H338.7379200000001V942.17664Q338.7379200000001 940.1606400000001 337.5686400000001 938.9107200000001Q336.39936000000006 937.6608 334.42368000000005 937.6608Q332.3673600000001 937.6608 331.09728000000007 938.95104Q329.82720000000006 940.2412800000001 329.82720000000006 942.33792V955.2Z"/><path d="M354.74496000000005 955.2 347.89056000000005 933.30624H353.65632000000005L358.8172800000001 950.60352H359.78496000000007L364.2604800000001 933.30624H369.66336000000007L363.7363200000001 955.2Z"/><path d="M377.00160000000005 930.6854400000001Q375.34848000000005 930.6854400000001 374.5622400000001 929.81856Q373.77600000000007 928.95168 373.77600000000007 927.62112Q373.77600000000007 926.29056 374.5622400000001 925.44384Q375.34848000000005 924.59712 377.00160000000005 924.59712Q378.61440000000005 924.59712 379.40064000000007 925.44384Q380.1868800000001 926.29056 380.1868800000001 927.62112Q380.1868800000001 928.95168 379.40064000000007 929.81856Q378.61440000000005 930.6854400000001 377.00160000000005 930.6854400000001ZM374.9452800000001 955.2V937.4995200000001H371.8809600000001V933.30624H380.54976000000005V955.2Z"/><path d="M396.51648000000006 955.48224Q393.49248000000006 955.48224 391.51680000000005 954.696Q389.54112000000003 953.90976 388.59360000000004 952.05504Q387.64608000000004 950.20032 387.64608000000004 946.97472V937.4188800000001H384.17856000000006V933.30624H387.64608000000004L387.68640000000005 927.13728H392.92800000000005L392.88768000000005 933.30624H399.66144V937.4188800000001H392.88768000000005V947.3376000000001Q392.88768000000005 948.9504000000001 393.7545600000001 949.81728Q394.62144000000006 950.68416 396.23424000000006 950.68416H399.66144V955.48224Z"/><path d="M410.5881600000001 955.76448Q406.95936000000006 955.76448 404.8022400000001 953.90976Q402.6451200000001 952.0550400000001 402.6451200000001 948.70848Q402.6451200000001 945.12 405.2457600000001 943.4064000000001Q407.8464000000001 941.6928 412.2412800000001 941.6928H416.71680000000003V941.4912Q416.71680000000003 937.74144 412.92672000000005 937.74144Q411.91872000000006 937.74144 410.50752000000006 937.7817600000001Q409.09632000000005 937.82208 407.66496000000006 937.88256Q406.2336000000001 937.94304 405.1046400000001 938.02368V933.26592Q406.4755200000001 933.1449600000001 408.3907200000001 933.0643200000001Q410.30592000000007 932.98368 411.91872000000006 932.98368Q416.9587200000001 932.98368 419.5190400000001 935.01984Q422.07936000000007 937.056 422.07936000000007 941.61216V955.2H417.64416000000006V951.0067200000001Q416.1523200000001 955.76448 410.5881600000001 955.76448ZM412.16064000000006 951.7728000000001Q413.28960000000006 951.7728000000001 414.2976000000001 951.3494400000001Q415.3056000000001 950.9260800000001 415.9708800000001 949.8979200000001Q416.6361600000001 948.86976 416.71680000000003 947.09568V945.03936H412.16064000000006Q410.22528000000005 945.03936 409.19712000000004 945.98688Q408.1689600000001 946.9344000000001 408.1689600000001 948.42624Q408.1689600000001 949.9584000000001 409.19712000000004 950.8656000000001Q410.22528000000005 951.7728000000001 412.16064000000006 951.7728000000001Z"/><path d="M437.6025600000001 955.48224Q434.5785600000001 955.48224 432.6028800000001 954.696Q430.6272000000001 953.90976 429.6796800000001 952.05504Q428.7321600000001 950.20032 428.7321600000001 946.97472V937.4188800000001H425.2646400000001V933.30624H428.7321600000001L428.7724800000001 927.13728H434.0140800000001L433.9737600000001 933.30624H440.74752000000007V937.4188800000001H433.9737600000001V947.3376000000001Q433.9737600000001 948.9504000000001 434.8406400000001 949.81728Q435.7075200000001 950.68416 437.3203200000001 950.68416H440.74752000000007V955.48224Z"/><path d="M448.5696000000001 930.6854400000001Q446.9164800000001 930.6854400000001 446.1302400000001 929.81856Q445.3440000000001 928.95168 445.3440000000001 927.62112Q445.3440000000001 926.29056 446.1302400000001 925.44384Q446.9164800000001 924.59712 448.5696000000001 924.59712Q450.1824000000001 924.59712 450.96864000000005 925.44384Q451.75488000000007 926.29056 451.75488000000007 927.62112Q451.75488000000007 928.95168 450.96864000000005 929.81856Q450.1824000000001 930.6854400000001 448.5696000000001 930.6854400000001ZM446.5132800000001 955.2V937.4995200000001H443.4489600000001V933.30624H452.1177600000001V955.2Z"/><path d="M469.0924800000001 955.96608Q465.2217600000001 955.96608 462.5606400000001 954.3734400000001Q459.8995200000001 952.7808 458.5084800000001 950.20032Q457.1174400000001 947.6198400000001 457.1174400000001 944.7168V943.87008Q457.1174400000001 940.84608 458.5488000000001 938.2656000000001Q459.98016000000007 935.6851200000001 462.6614400000001 934.11264Q465.3427200000001 932.54016 469.0924800000001 932.54016Q472.8019200000001 932.54016 475.4832000000001 934.11264Q478.1644800000001 935.6851200000001 479.59584000000007 938.2656000000001Q481.0272000000001 940.84608 481.0272000000001 943.87008V944.7168Q481.0272000000001 947.6198400000001 479.63616000000013 950.20032Q478.2451200000001 952.7808 475.58400000000006 954.3734400000001Q472.9228800000001 955.96608 469.0924800000001 955.96608ZM469.0924800000001 951.168Q472.1568000000001 951.168 473.7897600000001 949.21248Q475.4227200000001 947.25696 475.4227200000001 944.27328Q475.4227200000001 941.2896000000001 473.7292800000001 939.31392Q472.03584000000006 937.33824 469.0924800000001 937.33824Q466.1088000000001 937.33824 464.4153600000001 939.31392Q462.72192000000007 941.2896000000001 462.72192000000007 944.27328Q462.72192000000007 947.25696 464.3548800000001 949.21248Q465.98784000000006 951.168 469.0924800000001 951.168Z"/><path d="M485.94624000000005 955.2V933.30624H490.38144000000005V938.7091200000001Q491.79264000000006 932.6208 497.8809600000001 932.6208H498.12288000000007Q502.0339200000001 932.6208 504.04992000000004 935.16096Q506.06592000000006 937.7011200000001 506.06592000000006 942.66048V955.2H500.4614400000001V942.17664Q500.4614400000001 940.1606400000001 499.2921600000001 938.9107200000001Q498.12288000000007 937.6608 496.14720000000005 937.6608Q494.0908800000001 937.6608 492.8208000000001 938.95104Q491.55072000000007 940.2412800000001 491.55072000000007 942.33792V955.2Z"/></g><path d="M1209.6 410.4H1344.0L1655.04 501.12" fill="none" stroke="#C3CCFF" stroke-width="5.76"/><path d="M1209.6 475.2H1344.0L1655.04 520.56" fill="none" stroke="#C3CCFF" stroke-width="5.76"/><path d="M1209.6 540.0H1344.0L1655.04 540.0" fill="none" stroke="#C3CCFF" stroke-width="5.76"/><path d="M1209.6 604.8H1344.0L1655.04 559.44" fill="none" stroke="#C3CCFF" stroke-width="5.76"/><path d="M1209.6 669.6H1344.0L1655.04 578.88" fill="none" stroke="#C3CCFF" stroke-width="5.76"/><path d="M1689.6 259.2V820.8" stroke="#FFFFFF" stroke-width="23.04"/><circle cx="1795.1999999999998" cy="540.0" r="11.52" fill="#D54B1E"/></svg>