<svg xmlns="http://www.w3.org/2000/svg" width="256" height="256" viewBox="0 0 256 256" role="img"><title>DecisionInvitation</title><path fill="#FFFFFF" fill-rule="evenodd" d="M20 28H96C157 28 195 67 195 128C195 189 157 228 96 228H20ZM60 66V190H96C132 190 156 167 156 128C156 89 132 66 96 66Z M204 106H228V228H204Z"/><g fill="none" stroke="#FFFFFF" stroke-width="9" stroke-linecap="square" stroke-linejoin="miter"><path d="M72 94H98C118 94 134 108 149 121"/><path d="M72 162H98C118 162 134 148 149 135"/></g><circle fill="#FFFFFF" cx="216" cy="72" r="12"/></svg>